<?xml version="1.0" encoding="utf-8"?>
<!-- Generator: Adobe Illustrator 25.1.0, SVG Export Plug-In . SVG Version: 6.00 Build 0)  -->
<svg version="1.1" id="Слой_1" xmlns="http://www.w3.org/2000/svg" xmlns:xlink="http://www.w3.org/1999/xlink" x="0px" y="0px"
	 viewBox="0 0 20 17" style="enable-background:new 0 0 20 17;" xml:space="preserve">
<style type="text/css">
	.st0{fill:#FFFFFF;}
</style>
<path class="st0" d="M5.95,11.98c0.29,0.7,0.98,1.14,1.74,1.14h7.22c0.78,0,1.49-0.48,1.77-1.21l2.6-6.84
	c0.11-0.29,0.07-0.61-0.11-0.86c-0.18-0.25-0.47-0.4-0.78-0.4H4.55L3.22,0.67C3.07,0.32,2.72,0.09,2.34,0.09H0.45v1.86h1.26
	L5.95,11.98z M17.04,5.68l-2.13,5.58H7.7L5.34,5.68H17.04z"/>
<path class="st0" d="M8.01,16.42c0.78,0,1.42-0.62,1.42-1.4c0-0.77-0.63-1.4-1.42-1.4c-0.78,0-1.42,0.62-1.42,1.4
	C6.59,15.79,7.23,16.42,8.01,16.42z"/>
<path class="st0" d="M13.59,16.42c0.78,0,1.42-0.62,1.42-1.4c0-0.77-0.63-1.4-1.42-1.4c-0.78,0-1.42,0.62-1.42,1.4
	C12.17,15.79,12.81,16.42,13.59,16.42z"/>
</svg>
